<svg width="126" height="36" viewBox="0 0 126 36" fill="none" xmlns="http://www.w3.org/2000/svg">
<mask id="mask0_2786_10434" style="mask-type:luminance" maskUnits="userSpaceOnUse" x="0" y="0" width="126" height="36">
<path d="M126 0H0V35.077H126V0Z" fill="white"/>
</mask>
<g mask="url(#mask0_2786_10434)">
<path d="M47.9047 21.0882H41.0987V23.8099H47.9047V21.0882ZM51.9878 17.0051V34.699C49.2662 34.699 47.9047 33.3375 47.9047 30.6159V27.8942H41.0987V30.6159C41.0987 33.3375 39.7373 34.699 37.0156 34.699V19.1201C37.0156 17.9568 37.9673 17.0039 39.1318 17.0039H51.9878V17.0051Z" fill="#FF4100"/>
<path d="M111.027 23.8099V17.0039H126V21.087H115.11V23.8087H126V30.6147C126 33.3363 124.638 34.6978 121.916 34.6978H111.027V30.6147H121.916V27.8918H114.566C112.208 27.7107 111.029 26.3493 111.029 23.8087L111.027 23.8099Z" fill="#FF4100"/>
<path d="M10.8891 27.8942C10.8891 29.7107 9.97901 30.6159 8.16743 30.6159H4.08432V21.0882H8.16743C9.97901 21.0882 10.8891 21.9946 10.8891 23.8111V27.8942ZM8.16743 17.0051H0V34.699H8.1662C12.4976 34.699 14.7777 32.6281 14.971 28.4863V23.8099C14.971 19.2718 12.6994 17.0039 8.1662 17.0039L8.16743 17.0051Z" fill="#FF4100"/>
<path d="M103.324 21.1795V27.1427L96.6983 17.0291V17.0059H92.5234V34.6997C95.3063 34.6997 96.6983 33.3077 96.6983 30.5249V24.5984L103.316 34.6997L103.323 34.6948V34.6997H107.497V17.0059C104.714 17.0059 103.323 18.3979 103.323 21.1807L103.324 21.1795Z" fill="#FF4100"/>
<path d="M84.9074 30.6166H80.8243C79.0127 30.6166 78.1026 29.7114 78.1026 27.8949V21.089H84.9074V30.6166ZM76.1345 17.0059C74.9712 17.0059 74.0195 17.9575 74.0195 19.122V28.4882C74.2128 32.63 76.4941 34.7009 80.8243 34.7009H88.9905V17.0071H76.1345V17.0059Z" fill="#FF4100"/>
<path d="M29.402 23.8099H22.5973V21.0882H29.402V23.8099ZM33.4851 31.526C31.0289 31.2177 29.6516 29.3902 29.6516 27.8734H29.9647C32.3108 27.6924 33.4839 26.3371 33.4839 23.8099V19.1201C33.4839 17.9519 32.5371 17.0039 31.3677 17.0039H18.5117V34.6305H22.5948V27.893H25.292C25.3911 31.7926 28.1213 35.0757 33.4839 35.0757V31.526H33.4851Z" fill="#FF4100"/>
<path d="M70.4878 21.089V17.0059H55.5156V32.5848C55.5156 33.7529 56.4636 34.7009 57.6318 34.7009H63.6818C68.0132 34.7009 70.286 32.63 70.4793 28.4882V23.8118H63.6818V27.8949H66.4035C66.4035 29.7114 65.4922 30.6178 63.6818 30.6178H59.5987V21.0902H70.4878V21.089Z" fill="#FF4100"/>
<path d="M95.6638 4.31796H99.6881V2.7449H95.1121V4.31796H95.6638ZM102.433 0V11.6389C100.603 11.6389 99.6881 10.724 99.6881 8.89279V7.06286H95.1121V8.89279C95.1121 10.7227 94.1971 11.6389 92.3672 11.6389V1.4226C92.3672 0.640966 93.0069 0 93.7898 0H102.433Z" fill="white"/>
<path d="M46.5778 4.31796H50.6022V2.7449H46.0274V4.31796H46.579H46.5778ZM53.3471 0V11.6389C51.5172 11.6389 50.601 10.724 50.601 8.89279V7.06286H46.0262V8.89279C46.0262 10.7227 45.1112 11.6389 43.2812 11.6389V1.4226C43.2812 0.640966 43.921 0 44.7039 0H53.3483H53.3471Z" fill="white"/>
<path d="M90.0502 7.06286V11.6389C88.2203 11.6389 87.3053 10.724 87.3053 8.89402V7.06408H82.7293V8.89402C82.7293 10.724 81.8143 11.6389 79.9844 11.6389V0H82.7293V4.31796H87.3053V0H90.0502V7.06286Z" fill="white"/>
<path d="M40.9643 7.06286V11.6389C39.1344 11.6389 38.2194 10.724 38.2194 8.89402V7.06408H33.6433V8.89402C33.6433 10.724 32.7284 11.6389 30.8984 11.6389V0H33.6433V4.31796H38.2194V0H40.9643V7.06286Z" fill="white"/>
<path d="M107.499 0H104.754V11.6389C106.584 11.6389 107.499 10.724 107.499 8.89279V0Z" fill="white"/>
<path d="M18.5117 4.31796V0H28.5776V2.74612H21.2566V4.31796H28.5776V8.89402C28.5776 10.724 27.6626 11.6389 25.8327 11.6389H18.5117V8.89402H25.8327V7.06408H20.8909C19.3044 6.94176 18.5117 6.02679 18.5117 4.31918V4.31796Z" fill="white"/>
<path d="M62.7048 2.74612V6.66898L58.3477 0.0159018V0H55.6016V11.6389C57.4315 11.6389 58.3477 10.724 58.3477 8.89279V4.9944L62.7011 11.6389L62.706 11.6365H65.4521V0C63.621 0 62.706 0.914967 62.706 2.74612H62.7048Z" fill="white"/>
<path d="M77.6606 2.68619V0H67.8125V10.2469C67.8125 11.0151 68.4363 11.6389 69.2045 11.6389H73.1849C76.0337 11.6389 77.5285 10.2775 77.6557 7.55215V4.47698H73.1849V7.16316H74.9757C74.9757 8.35703 74.3763 8.95395 73.1849 8.95395H70.4987V2.68619H77.6606Z" fill="white"/>
</g>
</svg>
